# xmcd
#
# Track frame offsets: 
#        150
#        13604
#        27813
#        42125
#        55770
#        68882
#        80456
#        94093
#        105663
#        117854
#        129244
#        141860
#
# Disc length: 2094 seconds
#
# Revision: 2
# Processed by: cddbd v1.5.2PL0 Copyright (c) Steve Scherf et al.
# Submitted via: ExactAudioCopy v1.3
#
DISCID=93082c0c
DTITLE=Various Artist - Delta Blues Legacy
DYEAR=2012
DGENRE=Blues
TTITLE0=Son House - Walkin' Blues
TTITLE1=Willie Brown - M and O Blues
TTITLE2=Louise Johnson - All Night Long Blues
TTITLE3=Henry Sims - Be True Be True Blues
TTITLE4=Bertha Lee Patton - Mind Reader Blues
TTITLE5=Howlin' Wolf - Saddle My Pony
TTITLE6=John Lee Hooker - Hobo Blues
TTITLE7=Muddy Waters - Gypsy Woman
TTITLE8=Brownie McGhee - Big Legged Woman
TTITLE9=Big Joe Williams - She Left Me A Mule To Ride
TTITLE10=Bukka White - Fixin To Die Blues
TTITLE11=Tommy Johnson - Canned Heat Blues
EXTD=
EXTT0=
EXTT1=
EXTT2=
EXTT3=
EXTT4=
EXTT5=
EXTT6=
EXTT7=
EXTT8=
EXTT9=
EXTT10=
EXTT11=
PLAYORDER=
